<?xml version="1.0" encoding="utf-8"?>
<!-- Generator: Adobe Illustrator 19.0.0, SVG Export Plug-In . SVG Version: 6.00 Build 0)  -->
<svg version="1.1" id="Layer_1" xmlns="http://www.w3.org/2000/svg" xmlns:xlink="http://www.w3.org/1999/xlink" x="0px" y="0px"
	 viewBox="0 0 500 500" style="enable-background:new 0 0 500 500;" xml:space="preserve">
<style type="text/css">
	.st0{fill:#89BA19;}
</style>
<g id="_x23_89ba19ff">
	<path class="st0" d="M126.2,205.6h17.4c10,0.8,21.1,1.7,29,8.5c5.4,4.6,6.4,12.4,5,19c5.3-8.8,13.3-15.9,22.6-20.3
		c10.1-4.9,21.4-6.8,32.5-7.2h9.9c5,0.5,10.6-0.3,14.8,2.9c3,2.3,2.6,6.4,3.2,9.7c0.1,1.8,1.1,4.5-1.1,5.6c-11.3-0.6-22.7-2-34-0.3
		c-8.1,1.2-16.2,4.5-21.8,10.6c-6,6.3-8.7,15-10.2,23.4c-0.7,4.4-1.1,9.4,1.6,13.2c3.2,3.9,8.6,5,13.3,5.8
		c13.3,1.6,26.8-0.1,40.1-0.8c-3.1-9.3-1.2-19.3,1.8-28.4c3.8-11.7,11-22.6,21.3-29.7c11.9-8.4,26.7-11.4,41.1-12h11.4
		c8.3,0.6,16.7,1.2,24.5,4.3c4.2,1.7,8.4,4.4,10.4,8.7c1.3,2.6,1.3,5.6,1.1,8.4c5.1-8.9,14-14.9,23.6-17.9c6.6-2.2,13.5-3,20.5-3.4
		h11.9c4.9,0.3,9.9-0.1,14.6,1.2c2,0.5,3.4,2.1,4.3,3.8v1.8c-1.1,3.2-2.2,6.5-3.6,9.7c-0.8,1.8-2.8,2.1-4.5,2
		c-6.9-0.3-13.9-0.2-20.8-0.3c-5.8,0-12,0.2-17.1,3.1c-3,1.7-5.2,4.6-6.1,7.9c-5.4,18.6-10.7,37.3-16.1,56c-0.4,2-2.3,3.4-4.3,3.3
		c-6.2,0.1-12.3,0-18.5,0c-1.5,0-3.5-0.2-3.8-1.9c0.2-2,0.9-3.9,1.4-5.9c4.6-15.7,9-31.5,13.6-47.2c-3.2,4.3-7.4,7.7-12.2,10.2
		c-8.2,4.3-17.4,6.4-26.5,7.6c-15.1,1.9-30.2,3.9-45.2,5.8c0.1,3.4,0.7,7,3.2,9.5c3.6,3.8,9.1,4.3,14,4.8c15.8,1.2,31.6-0.6,47.4-1
		c0.9-0.2,2.1,0.4,1.8,1.5c-0.8,3.5-2.1,6.9-3,10.4c-1,3.3-4.6,4.7-7.7,5.2c-7.1,1-14.4,1-21.5,1.2c-12.8,0.1-25.8,0.9-38.2-2.8
		c-6.4-1.9-12.6-5.5-16.4-11.1c-0.7,3-0.8,6.2-2.4,8.8c-2.2,3.1-6.3,3.6-9.8,4.2c-9.2,1.1-18.5,1.1-27.7,1.2
		c-11.6,0-24.3-1-33.9-8.2c-6.6-4.9-9.3-13.3-9.1-21.2c-2.1,6.8-4.1,13.5-6.4,20.3c-1.4,3.8-5.6,5.2-9.2,5.9
		c-12.9,2.3-26,3-39.1,3.2c-10.2,0.1-20.6-0.1-30.6-2.6c-5.3-1.4-10.7-3.5-14.3-7.8c-1.8-2.1-2.8-4.8-3.2-7.6v-3.4
		c0.5-4.2,1.8-8.4,4.3-11.8c3.4-4.8,8.4-8.2,13.7-10.7c8.5-4,17.8-5.9,27.1-7.2c12.9-1.6,25.7-3.6,38.6-5.7c5.7-0.4,6.8-9,2.6-12
		c-4.7-3.5-11-3.7-16.6-4c-14.4-0.1-28.7,1.4-43,2.6c-1.1,0-2.1,0-3.2-0.2c0.4-3.6,1.7-7,2.9-10.4c1.4-3.8,5.5-5.6,9.2-6.1
		C109,206,117.7,205.9,126.2,205.6 M285.8,228.2c-5.9,5.3-8.6,12.9-10.8,20.3c12.1-1.7,24.3-3.4,36.4-5.2c6.4-1.1,12.9-2.4,18.5-5.8
		c3.1-1.9,5.7-5.2,5.3-9c-0.4-3.4-3.9-5.1-6.8-5.9c-7-1.9-14.4-1.6-21.6-1.3C299.6,222,291.6,223.2,285.8,228.2 M103.9,257.9
		c-5.8,0.8-12.3,4.2-13.4,10.5c-0.9,3.4,1.9,6.3,4.9,7.5c6.3,2.5,13.3,2.6,20,2.6c8.1,0,16.2-0.2,24.3-1.3
		c2.6-8.4,5.3-16.8,7.9-25.2C132.9,254,118.4,255.9,103.9,257.9z"/>
</g>
</svg>
